<svg id="vector" xmlns="http://www.w3.org/2000/svg" width="69.0d" height="41.0d" viewBox="0 0 69.0 41.0"><defs><clipPath id="clip_path_0"><path d="M0,0h68.364v41h-68.364z"/></clipPath></defs><g id="g_0"><path fill="#e30613ff" d="M61.339,32.29H7.025V33.988H61.339V32.29Z" clip-path="url(#clip_path_0)"/><path fill="#ffffffff" d="M61.339,30.593H7.025V32.29H61.339V30.593Z"/><path fill="#1d1d1bff" d="M61.339,30.477H7.025V30.593H61.339V30.477Z"/><g><path fill="#1d1d1bff" d="M14.054,7.157V13.963H13.244V8.962C13.244,8.895 13.248,8.825 13.252,8.747C13.256,8.672 13.261,8.594 13.269,8.516L10.931,12.769C10.857,12.914 10.75,12.984 10.597,12.984H10.465C10.316,12.984 10.205,12.914 10.13,12.769L7.747,8.495C7.768,8.664 7.776,8.817 7.776,8.962V13.963H6.967V7.157H7.644C7.727,7.157 7.789,7.165 7.834,7.182C7.88,7.198 7.921,7.244 7.962,7.314L10.312,11.501C10.349,11.576 10.386,11.658 10.423,11.741C10.461,11.823 10.494,11.906 10.527,11.993C10.56,11.906 10.593,11.823 10.626,11.737C10.659,11.65 10.7,11.571 10.741,11.497L13.05,7.314C13.087,7.239 13.128,7.198 13.174,7.182C13.219,7.165 13.285,7.157 13.368,7.157H14.054Z"/><path fill="#1d1d1bff" d="M16.597,7.644C16.597,7.727 16.581,7.805 16.548,7.875C16.515,7.946 16.469,8.012 16.416,8.065C16.362,8.119 16.296,8.164 16.222,8.198C16.147,8.231 16.069,8.247 15.986,8.247C15.904,8.247 15.825,8.231 15.755,8.198C15.685,8.164 15.623,8.123 15.569,8.065C15.515,8.008 15.474,7.946 15.441,7.875C15.408,7.805 15.392,7.727 15.392,7.644C15.392,7.562 15.408,7.483 15.441,7.409C15.474,7.334 15.515,7.268 15.569,7.215C15.623,7.161 15.685,7.116 15.755,7.082C15.825,7.049 15.904,7.037 15.986,7.037C16.069,7.037 16.147,7.054 16.222,7.082C16.296,7.111 16.362,7.157 16.416,7.215C16.469,7.268 16.515,7.334 16.548,7.409C16.581,7.483 16.597,7.562 16.597,7.644ZM16.42,9.151V13.963H15.573V9.151H16.42Z"/><path fill="#1d1d1bff" d="M18.6,9.854C18.704,9.738 18.815,9.631 18.935,9.536C19.055,9.441 19.174,9.358 19.306,9.292C19.439,9.226 19.579,9.172 19.724,9.135C19.872,9.098 20.029,9.081 20.203,9.081C20.467,9.081 20.698,9.127 20.901,9.213C21.103,9.3 21.268,9.424 21.404,9.585C21.541,9.746 21.64,9.936 21.71,10.163C21.78,10.386 21.813,10.638 21.813,10.911V13.975H20.962V10.903C20.962,10.539 20.88,10.254 20.715,10.056C20.55,9.858 20.298,9.754 19.959,9.754C19.707,9.754 19.476,9.816 19.257,9.936C19.038,10.056 18.84,10.221 18.654,10.423V13.967H17.803V9.151H18.311C18.431,9.151 18.505,9.209 18.534,9.329L18.6,9.854Z"/><path fill="#1d1d1bff" d="M24.18,7.644C24.18,7.727 24.163,7.805 24.13,7.875C24.097,7.946 24.052,8.012 23.998,8.065C23.944,8.119 23.878,8.164 23.804,8.198C23.729,8.231 23.651,8.247 23.568,8.247C23.486,8.247 23.407,8.231 23.337,8.198C23.267,8.164 23.205,8.123 23.151,8.065C23.098,8.008 23.056,7.946 23.023,7.875C22.99,7.805 22.974,7.727 22.974,7.644C22.974,7.562 22.99,7.483 23.023,7.409C23.056,7.334 23.098,7.268 23.151,7.215C23.205,7.161 23.267,7.116 23.337,7.082C23.407,7.049 23.486,7.037 23.568,7.037C23.651,7.037 23.729,7.054 23.804,7.082C23.878,7.111 23.944,7.157 23.998,7.215C24.052,7.268 24.097,7.334 24.13,7.409C24.163,7.483 24.18,7.562 24.18,7.644ZM23.998,9.151V13.963H23.151V9.151H23.998Z"/><path fill="#1d1d1bff" d="M28.185,9.949C28.148,10.019 28.09,10.052 28.008,10.052C27.958,10.052 27.905,10.035 27.847,9.998C27.789,9.961 27.715,9.924 27.628,9.882C27.541,9.841 27.438,9.8 27.318,9.763C27.198,9.726 27.054,9.709 26.893,9.709C26.748,9.709 26.62,9.726 26.509,9.763C26.393,9.8 26.298,9.849 26.215,9.911C26.133,9.973 26.075,10.048 26.03,10.13C25.988,10.213 25.964,10.304 25.964,10.403C25.964,10.527 26.001,10.63 26.071,10.712C26.141,10.795 26.236,10.865 26.352,10.927C26.468,10.989 26.604,11.039 26.752,11.088C26.901,11.134 27.054,11.183 27.211,11.237C27.368,11.291 27.521,11.349 27.669,11.41C27.818,11.472 27.95,11.555 28.07,11.65C28.19,11.745 28.28,11.861 28.351,12.001C28.421,12.137 28.458,12.302 28.458,12.497C28.458,12.72 28.417,12.922 28.338,13.112C28.26,13.302 28.14,13.463 27.987,13.599C27.834,13.736 27.64,13.847 27.417,13.925C27.19,14 26.934,14.041 26.637,14.041C26.302,14.041 25.997,13.987 25.724,13.876C25.451,13.769 25.22,13.628 25.03,13.455L25.229,13.132C25.253,13.091 25.282,13.058 25.319,13.038C25.352,13.017 25.398,13.005 25.451,13.005C25.509,13.005 25.567,13.025 25.633,13.071C25.695,13.116 25.774,13.166 25.865,13.219C25.955,13.273 26.063,13.323 26.195,13.368C26.323,13.413 26.488,13.434 26.678,13.434C26.843,13.434 26.988,13.413 27.112,13.368C27.236,13.327 27.339,13.269 27.421,13.194C27.504,13.12 27.566,13.038 27.603,12.943C27.64,12.848 27.661,12.744 27.661,12.637C27.661,12.505 27.624,12.393 27.554,12.307C27.483,12.22 27.388,12.146 27.273,12.084C27.157,12.022 27.021,11.968 26.872,11.922C26.723,11.877 26.567,11.828 26.41,11.778C26.253,11.728 26.1,11.671 25.947,11.604C25.798,11.538 25.662,11.46 25.546,11.361C25.431,11.262 25.336,11.142 25.266,10.998C25.195,10.853 25.158,10.679 25.158,10.473C25.158,10.291 25.195,10.114 25.274,9.944C25.352,9.775 25.46,9.626 25.608,9.498C25.753,9.37 25.935,9.267 26.145,9.193C26.356,9.118 26.6,9.077 26.872,9.077C27.19,9.077 27.475,9.127 27.723,9.226C27.975,9.325 28.194,9.461 28.375,9.635L28.185,9.949Z"/><path fill="#1d1d1bff" d="M30.973,14.041C30.593,14.041 30.3,13.934 30.097,13.723C29.895,13.512 29.792,13.207 29.792,12.806V9.862H29.214C29.164,9.862 29.119,9.845 29.086,9.816C29.053,9.787 29.032,9.738 29.032,9.676V9.337L29.821,9.238L30.015,7.752C30.023,7.702 30.044,7.665 30.081,7.636C30.118,7.607 30.16,7.59 30.213,7.59H30.643V9.246H32.034V9.858H30.643V12.744C30.643,12.947 30.692,13.095 30.791,13.194C30.89,13.294 31.014,13.343 31.171,13.343C31.258,13.343 31.336,13.331 31.403,13.306C31.469,13.281 31.522,13.256 31.572,13.227C31.617,13.199 31.659,13.174 31.692,13.149C31.725,13.124 31.753,13.112 31.778,13.112C31.824,13.112 31.861,13.137 31.898,13.194L32.146,13.599C32.001,13.736 31.824,13.843 31.617,13.921C31.403,14 31.192,14.041 30.973,14.041Z"/><path fill="#1d1d1bff" d="M36.788,13.29C36.684,13.417 36.556,13.525 36.412,13.62C36.267,13.715 36.11,13.789 35.945,13.851C35.78,13.913 35.607,13.954 35.429,13.987C35.251,14.02 35.078,14.033 34.9,14.033C34.57,14.033 34.26,13.975 33.979,13.863C33.699,13.752 33.455,13.587 33.253,13.368C33.05,13.153 32.889,12.885 32.774,12.563C32.658,12.245 32.604,11.877 32.604,11.46C32.604,11.125 32.654,10.812 32.757,10.518C32.86,10.225 33.009,9.973 33.203,9.763C33.397,9.552 33.633,9.383 33.909,9.259C34.186,9.135 34.5,9.077 34.851,9.077C35.14,9.077 35.404,9.127 35.652,9.222C35.896,9.317 36.11,9.457 36.288,9.639C36.466,9.821 36.606,10.048 36.709,10.312C36.812,10.58 36.862,10.886 36.862,11.225C36.862,11.357 36.85,11.448 36.821,11.489C36.792,11.534 36.738,11.555 36.66,11.555H33.443C33.451,11.861 33.492,12.125 33.567,12.348C33.641,12.571 33.744,12.761 33.876,12.91C34.008,13.058 34.169,13.174 34.351,13.248C34.533,13.323 34.739,13.36 34.971,13.36C35.181,13.36 35.367,13.335 35.52,13.285C35.673,13.236 35.805,13.182 35.916,13.124C36.028,13.066 36.119,13.013 36.193,12.963C36.267,12.914 36.329,12.889 36.387,12.889C36.457,12.889 36.511,12.918 36.548,12.972L36.788,13.29ZM36.102,11.035C36.102,10.836 36.073,10.659 36.02,10.494C35.966,10.333 35.883,10.188 35.776,10.072C35.668,9.957 35.541,9.862 35.388,9.796C35.235,9.73 35.061,9.697 34.871,9.697C34.467,9.697 34.145,9.816 33.909,10.052C33.674,10.287 33.525,10.613 33.472,11.031H36.102V11.035Z"/><path fill="#1d1d1bff" d="M38.7,10.118C38.853,9.787 39.038,9.531 39.261,9.346C39.484,9.16 39.753,9.069 40.075,9.069C40.178,9.069 40.273,9.081 40.368,9.102C40.463,9.123 40.546,9.16 40.616,9.205L40.554,9.837C40.533,9.915 40.488,9.957 40.414,9.957C40.368,9.957 40.306,9.949 40.22,9.928C40.133,9.907 40.038,9.899 39.93,9.899C39.778,9.899 39.641,9.92 39.526,9.965C39.406,10.01 39.303,10.076 39.208,10.163C39.113,10.25 39.03,10.357 38.956,10.485C38.882,10.613 38.815,10.762 38.753,10.923V13.963H37.903V9.151H38.386C38.477,9.151 38.543,9.168 38.576,9.205C38.609,9.238 38.634,9.3 38.646,9.387L38.7,10.118Z"/><path fill="#1d1d1bff" d="M44.139,9.949C44.101,10.019 44.044,10.052 43.961,10.052C43.916,10.052 43.858,10.035 43.8,9.998C43.742,9.961 43.668,9.924 43.577,9.882C43.486,9.841 43.387,9.8 43.267,9.763C43.147,9.726 43.003,9.709 42.838,9.709C42.697,9.709 42.565,9.726 42.454,9.763C42.338,9.8 42.243,9.849 42.16,9.911C42.078,9.973 42.02,10.048 41.975,10.13C41.933,10.213 41.909,10.304 41.909,10.403C41.909,10.527 41.946,10.63 42.016,10.712C42.086,10.795 42.181,10.865 42.297,10.927C42.412,10.989 42.549,11.039 42.697,11.088C42.846,11.134 42.999,11.183 43.156,11.237C43.313,11.291 43.465,11.349 43.614,11.41C43.763,11.472 43.895,11.555 44.015,11.65C44.13,11.745 44.225,11.861 44.296,12.001C44.366,12.137 44.403,12.302 44.403,12.497C44.403,12.72 44.362,12.922 44.283,13.112C44.205,13.302 44.085,13.463 43.932,13.599C43.775,13.736 43.589,13.847 43.362,13.925C43.139,14.004 42.879,14.045 42.582,14.045C42.247,14.045 41.942,13.991 41.669,13.88C41.396,13.773 41.165,13.632 40.975,13.459L41.173,13.137C41.198,13.095 41.227,13.062 41.264,13.042C41.297,13.021 41.343,13.009 41.396,13.009C41.454,13.009 41.512,13.029 41.578,13.075C41.64,13.12 41.719,13.17 41.809,13.223C41.9,13.277 42.008,13.327 42.14,13.372C42.268,13.417 42.433,13.438 42.623,13.438C42.788,13.438 42.933,13.417 43.057,13.372C43.181,13.327 43.284,13.273 43.366,13.199C43.449,13.124 43.511,13.042 43.548,12.947C43.589,12.852 43.606,12.748 43.606,12.641C43.606,12.509 43.569,12.398 43.499,12.311C43.428,12.224 43.333,12.15 43.218,12.088C43.102,12.026 42.966,11.972 42.817,11.927C42.668,11.881 42.512,11.832 42.354,11.782C42.198,11.733 42.045,11.675 41.892,11.609C41.743,11.543 41.607,11.464 41.491,11.365C41.376,11.266 41.281,11.146 41.211,11.002C41.14,10.857 41.103,10.684 41.103,10.477C41.103,10.295 41.14,10.118 41.219,9.949C41.293,9.779 41.405,9.631 41.549,9.503C41.694,9.374 41.875,9.271 42.086,9.197C42.297,9.123 42.54,9.081 42.813,9.081C43.131,9.081 43.416,9.131 43.664,9.23C43.916,9.329 44.134,9.465 44.316,9.639L44.139,9.949Z"/><path fill="#1d1d1bff" d="M46.926,14.041C46.546,14.041 46.253,13.934 46.051,13.723C45.848,13.512 45.745,13.207 45.745,12.806V9.862H45.167C45.117,9.862 45.072,9.845 45.039,9.816C45.006,9.787 44.985,9.738 44.985,9.676V9.337L45.774,9.238L45.968,7.752C45.976,7.702 45.997,7.665 46.034,7.636C46.067,7.607 46.113,7.59 46.166,7.59H46.596V9.246H47.987V9.858H46.596V12.744C46.596,12.947 46.645,13.095 46.744,13.194C46.844,13.294 46.967,13.343 47.124,13.343C47.211,13.343 47.29,13.331 47.356,13.306C47.422,13.281 47.475,13.256 47.525,13.227C47.575,13.199 47.612,13.174 47.645,13.149C47.678,13.124 47.707,13.112 47.731,13.112C47.777,13.112 47.814,13.137 47.851,13.194L48.099,13.599C47.954,13.736 47.777,13.843 47.57,13.921C47.356,14 47.145,14.041 46.926,14.041Z"/><path fill="#1d1d1bff" d="M55.487,9.151L53.93,13.963H53.261C53.179,13.963 53.121,13.909 53.092,13.802L52.026,10.539C52.002,10.465 51.981,10.394 51.964,10.32C51.948,10.246 51.931,10.172 51.919,10.101C51.903,10.176 51.886,10.246 51.869,10.32C51.853,10.394 51.832,10.469 51.807,10.547L50.725,13.806C50.697,13.913 50.635,13.967 50.535,13.967H49.9L48.343,9.156H49.007C49.074,9.156 49.131,9.172 49.177,9.209C49.222,9.246 49.255,9.284 49.268,9.333L50.189,12.431C50.242,12.658 50.284,12.872 50.317,13.075C50.346,12.972 50.375,12.864 50.403,12.757C50.432,12.649 50.465,12.542 50.502,12.431L51.518,9.317C51.535,9.271 51.56,9.23 51.601,9.197C51.642,9.164 51.688,9.151 51.746,9.151H52.117C52.179,9.151 52.233,9.168 52.274,9.197C52.315,9.226 52.344,9.267 52.361,9.317L53.352,12.431C53.385,12.542 53.418,12.649 53.447,12.757C53.476,12.864 53.501,12.972 53.53,13.075C53.546,12.972 53.567,12.864 53.587,12.761C53.608,12.658 53.637,12.546 53.666,12.431L54.607,9.333C54.624,9.284 54.653,9.242 54.698,9.209C54.744,9.176 54.793,9.16 54.855,9.16H55.487V9.151Z"/><path fill="#1d1d1bff" d="M58.287,9.077C58.638,9.077 58.956,9.135 59.237,9.255C59.518,9.37 59.757,9.54 59.96,9.754C60.158,9.969 60.311,10.229 60.418,10.535C60.525,10.84 60.579,11.183 60.579,11.559C60.579,11.939 60.525,12.282 60.418,12.583C60.311,12.889 60.158,13.145 59.96,13.364C59.761,13.579 59.518,13.744 59.237,13.859C58.956,13.975 58.638,14.033 58.287,14.033C57.932,14.033 57.614,13.975 57.329,13.859C57.044,13.744 56.805,13.579 56.606,13.364C56.408,13.149 56.255,12.889 56.148,12.583C56.041,12.278 55.987,11.939 55.987,11.559C55.987,11.183 56.041,10.84 56.148,10.535C56.255,10.229 56.408,9.969 56.606,9.754C56.805,9.54 57.048,9.374 57.329,9.255C57.61,9.135 57.932,9.077 58.287,9.077ZM58.287,13.372C58.762,13.372 59.117,13.211 59.353,12.893C59.588,12.575 59.704,12.129 59.704,11.559C59.704,10.985 59.588,10.539 59.353,10.221C59.117,9.903 58.762,9.742 58.287,9.742C58.048,9.742 57.837,9.783 57.659,9.866C57.482,9.949 57.333,10.068 57.213,10.221C57.094,10.378 57.007,10.568 56.949,10.795C56.891,11.022 56.862,11.278 56.862,11.563C56.862,12.133 56.982,12.579 57.217,12.897C57.453,13.215 57.804,13.372 58.287,13.372Z"/></g><g><path fill="#1d1d1bff" d="M11.749,23.168C11.799,23.168 11.844,23.188 11.881,23.23L12.249,23.626C11.972,23.948 11.634,24.2 11.233,24.382C10.836,24.564 10.353,24.654 9.792,24.654C9.304,24.654 8.862,24.568 8.462,24.399C8.061,24.229 7.723,23.994 7.442,23.688C7.161,23.383 6.942,23.015 6.785,22.59C6.628,22.16 6.554,21.694 6.554,21.177C6.554,20.665 6.636,20.194 6.798,19.765C6.959,19.335 7.186,18.972 7.479,18.662C7.772,18.353 8.123,18.117 8.532,17.948C8.941,17.778 9.391,17.692 9.887,17.692C10.37,17.692 10.799,17.77 11.167,17.923C11.538,18.08 11.865,18.291 12.146,18.555L11.84,18.976C11.819,19.009 11.795,19.034 11.766,19.055C11.737,19.075 11.695,19.083 11.646,19.083C11.588,19.083 11.518,19.055 11.435,18.993C11.353,18.931 11.245,18.861 11.113,18.786C10.981,18.712 10.816,18.642 10.613,18.58C10.411,18.518 10.167,18.489 9.878,18.489C9.527,18.489 9.205,18.551 8.916,18.67C8.623,18.79 8.375,18.968 8.164,19.199C7.954,19.43 7.789,19.711 7.673,20.046C7.557,20.38 7.495,20.752 7.495,21.173C7.495,21.598 7.557,21.974 7.677,22.309C7.801,22.639 7.966,22.924 8.177,23.151C8.387,23.378 8.635,23.556 8.924,23.676C9.209,23.795 9.519,23.858 9.854,23.858C10.056,23.858 10.238,23.845 10.403,23.82C10.568,23.795 10.717,23.758 10.853,23.709C10.989,23.659 11.117,23.593 11.237,23.515C11.357,23.436 11.472,23.345 11.592,23.238C11.642,23.193 11.695,23.168 11.749,23.168Z"/><path fill="#1d1d1bff" d="M17.105,19.765L14.421,25.997C14.392,26.059 14.355,26.112 14.314,26.149C14.272,26.187 14.206,26.207 14.115,26.207H13.488L14.367,24.299L12.381,19.769H13.112C13.186,19.769 13.244,19.786 13.285,19.823C13.327,19.86 13.356,19.901 13.372,19.942L14.661,22.974C14.71,23.106 14.755,23.246 14.789,23.391C14.834,23.242 14.879,23.102 14.933,22.97L16.18,19.942C16.201,19.893 16.23,19.852 16.279,19.819C16.325,19.786 16.378,19.769 16.432,19.769H17.105V19.765Z"/><path fill="#1d1d1bff" d="M18.167,24.576V20.488L17.634,20.426C17.568,20.409 17.514,20.384 17.469,20.351C17.427,20.318 17.403,20.269 17.403,20.207V19.86H18.163V19.393C18.163,19.117 18.2,18.873 18.278,18.658C18.357,18.443 18.468,18.266 18.613,18.117C18.757,17.969 18.931,17.857 19.133,17.783C19.335,17.708 19.563,17.667 19.819,17.667C20.033,17.667 20.232,17.7 20.413,17.762L20.393,18.183C20.384,18.258 20.343,18.299 20.269,18.307C20.19,18.315 20.087,18.315 19.959,18.315C19.815,18.315 19.682,18.336 19.563,18.373C19.443,18.41 19.34,18.472 19.257,18.559C19.17,18.646 19.104,18.757 19.059,18.898C19.013,19.038 18.989,19.212 18.989,19.414V19.856H20.376V20.467H19.017V24.572H18.167V24.576Z"/><path fill="#1d1d1bff" d="M21.983,20.727C22.135,20.397 22.321,20.141 22.544,19.955C22.767,19.769 23.036,19.678 23.358,19.678C23.461,19.678 23.556,19.691 23.651,19.711C23.746,19.732 23.829,19.769 23.899,19.815L23.837,20.446C23.816,20.525 23.771,20.566 23.692,20.566C23.647,20.566 23.585,20.558 23.498,20.537C23.412,20.517 23.316,20.508 23.209,20.508C23.056,20.508 22.92,20.529 22.804,20.574C22.685,20.62 22.581,20.686 22.486,20.773C22.391,20.859 22.309,20.967 22.235,21.095C22.16,21.223 22.094,21.371 22.032,21.532V24.572H21.181V19.765H21.665C21.756,19.765 21.822,19.781 21.855,19.819C21.888,19.856 21.912,19.914 21.925,20L21.983,20.727Z"/><path fill="#1d1d1bff" d="M28.788,19.765L26.104,25.997C26.075,26.059 26.038,26.112 25.997,26.149C25.955,26.187 25.889,26.207 25.799,26.207H25.171L26.05,24.299L24.064,19.769H24.795C24.869,19.769 24.927,19.786 24.968,19.823C25.01,19.86 25.039,19.901 25.055,19.942L26.344,22.974C26.393,23.106 26.439,23.246 26.472,23.391C26.517,23.242 26.563,23.102 26.616,22.97L27.863,19.942C27.884,19.893 27.913,19.852 27.962,19.819C28.008,19.786 28.062,19.769 28.115,19.769H28.788V19.765Z"/><path fill="#1d1d1bff" d="M32.856,20.124C32.856,20.186 32.848,20.244 32.827,20.302C32.807,20.36 32.778,20.409 32.745,20.451L30.139,23.919H32.77V24.58H29.148V24.229C29.148,24.188 29.156,24.138 29.177,24.085C29.197,24.031 29.226,23.977 29.263,23.928L31.886,20.438H29.296V19.773H32.864V20.124H32.856Z"/><path fill="#1d1d1bff" d="M33.703,20.442C33.967,20.186 34.256,19.996 34.562,19.868C34.867,19.74 35.21,19.678 35.582,19.678C35.85,19.678 36.09,19.724 36.3,19.81C36.511,19.897 36.684,20.021 36.829,20.182C36.969,20.339 37.081,20.533 37.151,20.756C37.225,20.979 37.258,21.227 37.258,21.495V24.572H36.883C36.8,24.572 36.738,24.559 36.693,24.531C36.647,24.502 36.614,24.452 36.589,24.37L36.494,23.915C36.366,24.031 36.243,24.134 36.123,24.225C36.003,24.316 35.875,24.39 35.743,24.452C35.611,24.514 35.47,24.559 35.318,24.597C35.169,24.63 35,24.646 34.818,24.646C34.632,24.646 34.454,24.622 34.289,24.568C34.124,24.514 33.979,24.436 33.86,24.332C33.74,24.229 33.641,24.097 33.571,23.936C33.5,23.775 33.463,23.585 33.463,23.37C33.463,23.18 33.517,22.999 33.62,22.821C33.723,22.643 33.893,22.49 34.128,22.354C34.363,22.218 34.669,22.107 35.045,22.02C35.421,21.933 35.883,21.883 36.432,21.871V21.495C36.432,21.124 36.35,20.839 36.189,20.649C36.028,20.459 35.792,20.36 35.483,20.36C35.272,20.36 35.099,20.384 34.958,20.438C34.818,20.492 34.694,20.55 34.591,20.616C34.487,20.682 34.401,20.74 34.326,20.793C34.252,20.847 34.178,20.872 34.107,20.872C34.05,20.872 34,20.855 33.959,20.826C33.917,20.797 33.884,20.76 33.856,20.715L33.703,20.442ZM36.437,22.408C36.048,22.42 35.714,22.453 35.441,22.499C35.169,22.548 34.946,22.61 34.772,22.693C34.599,22.775 34.475,22.866 34.396,22.974C34.318,23.081 34.281,23.201 34.281,23.333C34.281,23.461 34.302,23.568 34.343,23.659C34.384,23.75 34.442,23.824 34.512,23.886C34.582,23.944 34.669,23.99 34.764,24.014C34.859,24.043 34.966,24.056 35.074,24.056C35.222,24.056 35.359,24.039 35.483,24.01C35.607,23.981 35.722,23.936 35.834,23.878C35.945,23.82 36.048,23.754 36.148,23.672C36.247,23.593 36.346,23.502 36.441,23.399V22.408H36.437Z"/><path fill="#1d1d1bff" d="M41.896,20.62C41.871,20.653 41.847,20.682 41.822,20.702C41.797,20.723 41.76,20.731 41.719,20.731C41.669,20.731 41.619,20.711 41.562,20.674C41.504,20.632 41.434,20.591 41.351,20.541C41.268,20.492 41.165,20.45 41.041,20.409C40.917,20.368 40.769,20.351 40.591,20.351C40.352,20.351 40.145,20.393 39.963,20.475C39.782,20.558 39.633,20.682 39.509,20.839C39.385,20.996 39.294,21.185 39.232,21.413C39.171,21.636 39.142,21.888 39.142,22.168C39.142,22.462 39.175,22.718 39.241,22.945C39.307,23.172 39.402,23.362 39.522,23.515C39.641,23.667 39.79,23.787 39.963,23.866C40.137,23.948 40.331,23.986 40.546,23.986C40.752,23.986 40.922,23.961 41.054,23.911C41.186,23.862 41.297,23.808 41.384,23.746C41.471,23.684 41.545,23.63 41.603,23.581C41.661,23.531 41.719,23.507 41.776,23.507C41.847,23.507 41.9,23.535 41.937,23.589L42.177,23.899C42.074,24.027 41.954,24.138 41.822,24.229C41.69,24.32 41.545,24.399 41.392,24.46C41.239,24.522 41.078,24.568 40.909,24.597C40.74,24.626 40.57,24.638 40.397,24.638C40.096,24.638 39.815,24.584 39.559,24.473C39.303,24.361 39.076,24.2 38.886,23.99C38.696,23.779 38.547,23.519 38.44,23.213C38.332,22.908 38.278,22.557 38.278,22.164C38.278,21.805 38.328,21.475 38.427,21.173C38.526,20.868 38.671,20.607 38.865,20.389C39.059,20.17 39.294,19.996 39.571,19.872C39.852,19.748 40.174,19.686 40.537,19.686C40.876,19.686 41.173,19.74 41.434,19.852C41.69,19.959 41.921,20.116 42.119,20.314L41.896,20.62Z"/><path fill="#1d1d1bff" d="M43.978,19.765V24.931C43.978,25.125 43.953,25.303 43.903,25.472C43.854,25.637 43.771,25.782 43.66,25.906C43.548,26.03 43.408,26.129 43.234,26.199C43.061,26.269 42.854,26.306 42.615,26.306C42.512,26.306 42.421,26.298 42.334,26.282C42.247,26.265 42.165,26.24 42.078,26.211L42.111,25.757C42.119,25.728 42.127,25.708 42.144,25.691C42.156,25.679 42.177,25.666 42.202,25.666C42.227,25.662 42.26,25.662 42.301,25.662C42.342,25.662 42.392,25.666 42.45,25.666C42.697,25.666 42.871,25.608 42.978,25.493C43.081,25.377 43.135,25.191 43.135,24.935V19.765H43.978ZM44.151,18.253C44.151,18.336 44.134,18.414 44.102,18.485C44.068,18.555 44.023,18.621 43.969,18.675C43.916,18.728 43.849,18.774 43.775,18.807C43.701,18.84 43.626,18.856 43.544,18.856C43.461,18.856 43.383,18.84 43.313,18.807C43.243,18.774 43.181,18.733 43.123,18.675C43.069,18.621 43.028,18.555 42.995,18.485C42.962,18.414 42.949,18.336 42.949,18.253C42.949,18.171 42.966,18.092 42.995,18.018C43.028,17.944 43.069,17.878 43.123,17.824C43.176,17.77 43.238,17.725 43.313,17.692C43.383,17.659 43.461,17.646 43.544,17.646C43.626,17.646 43.705,17.663 43.775,17.692C43.849,17.725 43.911,17.766 43.969,17.824C44.023,17.878 44.068,17.944 44.102,18.018C44.134,18.092 44.151,18.171 44.151,18.253Z"/><path fill="#1d1d1bff" d="M46.435,18.253C46.435,18.336 46.418,18.414 46.385,18.485C46.352,18.555 46.307,18.621 46.253,18.675C46.199,18.728 46.133,18.774 46.059,18.807C45.985,18.84 45.906,18.856 45.824,18.856C45.741,18.856 45.662,18.84 45.592,18.807C45.522,18.774 45.46,18.733 45.402,18.675C45.349,18.621 45.307,18.555 45.274,18.485C45.241,18.414 45.229,18.336 45.229,18.253C45.229,18.171 45.245,18.092 45.274,18.018C45.307,17.944 45.349,17.878 45.402,17.824C45.456,17.77 45.518,17.725 45.592,17.692C45.662,17.659 45.741,17.646 45.824,17.646C45.906,17.646 45.985,17.663 46.059,17.692C46.133,17.725 46.199,17.766 46.253,17.824C46.307,17.878 46.352,17.944 46.385,18.018C46.418,18.092 46.435,18.171 46.435,18.253ZM46.257,19.765V24.576H45.411V19.765H46.257Z"/></g></g></svg>